<svg width="150" height="150" viewBox="0 0 150 150" fill="none" xmlns="http://www.w3.org/2000/svg">
<path d="M56.41 57.125H26.5227C26.121 60.5876 22.5773 63.3439 18.125 63.6565V87.3435C22.577 87.6558 26.121 90.4121 26.5227 93.875H56.41C49.527 89.5437 45.125 82.9222 45.125 75.5C45.125 68.0778 49.527 61.4562 56.41 57.125Z" fill="white"/>
<path d="M94.59 93.875H124.477C124.879 90.4124 128.423 87.6561 132.875 87.3435V63.6565C128.423 63.3442 124.879 60.5879 124.477 57.125H94.59C101.473 61.4562 105.875 68.0778 105.875 75.5C105.875 82.9222 101.473 89.5437 94.59 93.875Z" fill="white"/>
<path d="M75.5 49.25V55.6812H77.8095V59.949C80.1629 60.1191 82.3729 60.5267 84.4373 61.1748C86.5018 61.8237 88.2946 62.4853 89.8157 63.1604L85.9041 68.9084C85.7958 68.7958 85.4782 68.6117 84.9534 68.3574C84.4282 68.1046 83.758 67.8303 82.9432 67.5339C82.1278 67.2391 81.2227 66.9567 80.2267 66.6884C79.2301 66.4207 78.2253 66.2322 77.2115 66.1188V71.8654L78.9499 72.2038C80.7971 72.5983 82.4626 73.0275 83.9483 73.4921C85.4326 73.957 86.6918 74.5348 87.7239 75.2252C88.7567 75.9161 89.5528 76.7529 90.1141 77.7394C90.6757 78.7253 90.9565 79.9092 90.9565 81.2894C90.9565 82.8946 90.5947 84.2609 89.8708 85.3873C89.1448 86.5155 88.1762 87.4367 86.9639 88.1556C85.7499 88.8741 84.3557 89.4175 82.7806 89.7824C81.2041 90.1475 79.5476 90.3596 77.8092 90.4158V95.3187H75.5V101.75H143V49.25H75.5ZM94.59 57.125H124.477C124.879 60.5876 128.423 63.3439 132.875 63.6565V87.3435C128.423 87.6558 124.879 90.4121 124.477 93.875H94.59C101.473 89.5437 105.875 82.9222 105.875 75.5C105.875 68.0778 101.473 61.4562 94.59 57.125Z" fill="#6DA544"/>
<path d="M81.3951 81.9654C81.3951 81.233 81.0148 80.6623 80.254 80.2541C79.493 79.8452 78.4791 79.4727 77.2118 79.134V84.205C80.0002 84.121 81.3951 83.3737 81.3951 81.9654Z" fill="#6DA544"/>
<path d="M70.8543 68.5277C70.8543 69.2323 71.1712 69.788 71.8061 70.1967C72.4385 70.606 73.3893 70.9651 74.6576 71.2745V66.0773C72.122 66.2456 70.8543 67.063 70.8543 68.5277Z" fill="#91DC5A"/>
<path d="M75.5 95.3187H74.0602V90.3743C71.5614 90.2055 69.0885 89.8118 66.644 89.1917C64.1995 88.5725 61.9983 87.7551 60.0432 86.74L63.9548 80.697C64.0996 80.839 64.4884 81.0716 65.1229 81.3942C65.7557 81.7191 66.5627 82.0562 67.5404 82.4079C68.5181 82.7621 69.6231 83.0988 70.8543 83.4236C72.0859 83.747 73.3542 83.9793 74.6576 84.1205V78.5004L72.0497 77.9079C70.2748 77.4853 68.7358 77.0272 67.4321 76.535C66.1276 76.0421 65.0497 75.4714 64.1992 74.8241C63.3476 74.1759 62.7131 73.4286 62.297 72.5841C61.8809 71.7386 61.6723 70.7522 61.6723 69.6252C61.6723 68.1608 61.998 66.8582 62.6507 65.7164C63.3024 64.5761 64.1799 63.598 65.2856 62.7795C66.3899 61.9629 67.6933 61.3226 69.1975 60.8577C70.6997 60.3931 72.3211 60.0902 74.0599 59.9484V55.6812H75.5V49.25H8V101.75H75.5V95.3187ZM56.41 93.875H26.5227C26.1211 90.4124 22.5773 87.6561 18.125 87.3435V63.6565C22.577 63.3442 26.1211 60.5879 26.5227 57.125H56.41C49.527 61.4562 45.125 68.0778 45.125 75.5C45.125 82.9222 49.527 89.5437 56.41 93.875Z" fill="#91DC5A"/>
<path d="M74.0602 59.949C72.3214 60.0907 70.7001 60.3934 69.1979 60.8583C67.694 61.3232 66.3905 61.9634 65.2859 62.78C64.1803 63.5985 63.3028 64.5768 62.651 65.7169C61.9983 66.8588 61.6726 68.1613 61.6726 69.6258C61.6726 70.7529 61.8812 71.7394 62.2973 72.5847C62.7135 73.4291 63.3483 74.1765 64.1995 74.8246C65.05 75.4719 66.1276 76.0426 67.4324 76.5356C68.7358 77.0275 70.2752 77.4855 72.0501 77.9084L74.6579 78.5009V84.121C73.3545 83.9798 72.0862 83.7475 70.8547 83.4241C69.6235 83.0994 68.5185 82.7626 67.5407 82.4085C66.563 82.0567 65.756 81.7197 65.1232 81.3947C64.4887 81.0721 64.0996 80.8395 63.9551 80.6975L60.0435 86.7405C61.9987 87.7556 64.1998 88.5728 66.6443 89.1923C69.0889 89.8123 71.5617 90.206 74.0606 90.3748V95.3187H75.5H77.8095V90.4163C79.548 90.3601 81.2048 90.148 82.7809 89.7829C84.356 89.4177 85.7502 88.8746 86.9642 88.1562C88.1765 87.4372 89.1451 86.5161 89.8711 85.3878C90.595 84.2615 90.9568 82.8951 90.9568 81.29C90.9568 79.9095 90.6764 78.7259 90.1144 77.7399C89.5532 76.7534 88.7567 75.9166 87.7243 75.2257C86.6922 74.5353 85.433 73.9575 83.9486 73.4927C82.463 73.028 80.7974 72.5988 78.9503 72.2043L77.2118 71.8659V66.1193C78.2253 66.2327 79.2304 66.4212 80.227 66.6889C81.223 66.9569 82.1282 67.2396 82.9436 67.5344C83.7586 67.8308 84.4286 68.1051 84.9537 68.3579C85.4785 68.6123 85.7961 68.7963 85.9045 68.9089L89.8161 63.1609C88.295 62.4858 86.5022 61.824 84.4377 61.1754C82.3728 60.5273 80.1629 60.1196 77.8098 59.9495V55.6812H75.5H74.0602V59.949ZM77.2118 79.1343C78.4791 79.4729 79.493 79.8454 80.254 80.2544C81.0148 80.6626 81.3951 81.2333 81.3951 81.9656C81.3951 83.3739 80.0002 84.1213 77.2118 84.2055V79.1343ZM74.6576 71.2745C73.3893 70.9648 72.4385 70.6059 71.8061 70.1967C71.1712 69.7877 70.8543 69.232 70.8543 68.5277C70.8543 67.0632 72.122 66.2458 74.6576 66.0776V71.2745Z" fill="white"/>
</svg>
