<svg width="150" height="150" viewBox="0 0 150 150" fill="none" xmlns="http://www.w3.org/2000/svg">
<g clip-path="url(#clip0_3_28)">
<path d="M88.1726 41.6494C86.0811 43.7817 85.0173 46.739 84.85 50.2081C81.5406 50.2503 78.8336 51.4733 76.8354 53.4911V36.1927C76.8354 30.5931 79.5222 26.0365 85.0223 26.0365C90.1579 26.7307 94.5393 25.7488 97.4149 22.8329C100.294 19.9049 101.255 15.4438 100.559 10.2189C95.4314 9.51658 91.0499 10.4847 88.1724 13.4245C86.0806 15.557 85.0168 18.514 84.8497 21.9831C77.2589 22.0796 72.8457 28.4133 72.8457 36.1925V42.4127C70.2874 39.7487 66.7289 38.0724 62.8392 38.0224C62.6736 34.5515 61.6055 31.5922 59.516 29.4581C56.6405 26.5263 52.2588 25.5485 47.1275 26.2564C46.4357 31.4774 47.3883 35.9386 50.2738 38.8684C53.1456 41.7883 57.5288 42.7623 62.6626 42.076C68.1625 42.076 72.8457 46.6323 72.8457 52.2322V68.8189C70.2874 66.1549 66.7289 64.4787 62.8392 64.4286C62.6736 60.9577 61.6055 57.9985 59.516 55.8644C56.6405 52.9325 52.2588 51.9547 47.1275 52.6626C46.4357 57.8837 47.3883 62.3448 50.2738 65.2746C53.1456 68.1946 57.5288 69.1686 62.6626 68.4822C68.1625 68.4822 72.8457 73.0386 72.8457 78.6385V89.2188H76.8357V64.4177C76.8357 58.8181 79.5227 54.2615 85.0223 54.2615C85.0223 54.262 85.0223 54.2627 85.0223 54.2627C90.1579 54.9597 94.5413 53.9758 97.4151 51.0597C100.294 48.1319 101.255 43.6705 100.559 38.4459C95.4316 37.7418 91.0501 38.7117 88.1726 41.6494Z" fill="#3CB44A"/>
<path d="M76.8343 36.1925C76.8343 30.5926 79.5208 26.0362 85.0212 26.0362V26.035H85.0244H85.0242C90.158 26.7304 94.5407 25.7465 97.4137 22.8312C100.293 19.9036 101.253 15.4427 100.558 10.2186L87.9837 23.0221C87.2353 23.7838 86.2204 24.2119 85.1623 24.2119H84.8142L84.8144 24.2155C78.3178 24.2155 74.8393 29.5777 74.8393 36.1927V56.1807C75.3961 55.1829 76.0582 54.2747 76.8343 53.4914V36.1925Z" fill="#0E9247"/>
<path d="M100.558 38.4471L87.9835 51.2506C87.2353 52.0126 86.2204 52.4407 85.1621 52.4407H84.8144C78.3178 52.4407 74.8393 57.8029 74.8393 64.4179V89.2187H76.8343V64.4177C76.8343 58.8178 79.521 54.2614 85.0209 54.2614L85.0212 54.2632H85.0246L85.0244 54.2635C90.158 54.9587 94.5409 53.9748 97.4137 51.0594C100.292 48.1321 101.253 43.6713 100.558 38.4471Z" fill="#0E9247"/>
<path d="M100.774 89.2188H48.9046C47.8073 89.2188 46.9096 90.1328 46.9096 91.25V99.375C46.9096 100.492 47.8073 101.406 48.9046 101.406H50.8996L56.3528 136.571C56.6588 138.546 58.3304 140 60.2939 140H70.8493H74.8393H89.3847C91.348 140 93.0195 138.546 93.3258 136.571L98.779 101.406H100.774C101.871 101.406 102.769 100.492 102.769 99.375V91.25C102.769 90.1328 101.871 89.2188 100.774 89.2188Z" fill="#ED2C39"/>
<path d="M98.779 95.3125C98.779 96.4343 97.8858 97.3438 96.784 97.3438H52.8945C50.6908 97.3438 48.9046 99.1625 48.9046 101.406H88.8041L83.9808 132.509C83.6745 134.483 82.0033 135.938 80.0397 135.938H56.2543L56.3528 136.571C56.6591 138.546 58.3306 140 60.2942 140H89.3847C91.3482 140 93.0195 138.546 93.3257 136.571L98.779 101.406H100.774C101.876 101.406 102.769 100.497 102.769 99.375V91.25C100.565 91.25 98.779 93.0687 98.779 95.3125Z" fill="#CB202C"/>
<path d="M62.8692 40.2552L62.8697 40.2496H62.5218C61.4637 40.2496 60.4488 39.8215 59.7007 39.0598L47.1261 26.2563C46.4311 31.4805 47.3914 35.9411 50.2706 38.8689C53.1434 41.7842 57.5261 42.7681 62.66 42.0727H62.6597H62.661V42.076C68.1609 42.076 72.8441 46.6323 72.8441 52.2322V45.6657C70.6808 42.4094 66.9823 40.2557 62.8692 40.2552Z" fill="#0E9247"/>
<path d="M62.8692 66.6615L62.8697 66.6559H62.5218C61.4637 66.6559 60.4488 66.2278 59.7007 65.4661L47.1261 52.6626C46.4311 57.8867 47.3914 62.3473 50.2706 65.2751C53.1434 68.1905 57.5261 69.1744 62.66 68.4789H62.6597H62.661V68.4822C68.1609 68.4822 72.8441 73.0386 72.8441 78.6385V72.072C70.6808 68.8156 66.9823 66.662 62.8692 66.6615Z" fill="#0E9247"/>
</g>
<defs>
<clipPath id="clip0_3_28">
<rect width="127.679" height="130" fill="white" transform="translate(11 10)"/>
</clipPath>
</defs>
</svg>
